<svg width="32" height="32" viewBox="0 0 32 32" fill="none" xmlns="http://www.w3.org/2000/svg">
<path d="M28.975 16.6375C28.675 10.825 24.5375 5.93752 18.925 4.65002C18.5375 4.56252 18.15 4.80002 18.0625 5.18752C17.975 5.57502 18.2125 5.96252 18.6 6.05002C23.5875 7.20002 27.275 11.55 27.5375 16.7125C27.5625 17.1125 27.9 17.4125 28.2875 17.4C28.7 17.375 29 17.0375 28.975 16.6375ZM12.3625 4.83752C6.85 6.43752 3 11.5 3 17.3125C3 18.575 3.175 19.825 3.5375 21.0125C3.65 21.4 4.05 21.6125 4.4375 21.5C4.825 21.3875 5.0375 20.9875 4.925 20.6C4.6125 19.5375 4.45 18.4375 4.45 17.3125C4.45 12.1375 7.875 7.63752 12.7625 6.21252C13.15 6.10002 13.3625 5.70002 13.25 5.31252C13.1375 4.95002 12.7375 4.72502 12.3625 4.83752ZM6.8875 26.5875C9.3 28.9625 12.5375 30.3125 16 30.3125C19.725 30.3125 23.2 28.7375 25.65 26.025C25.9125 25.725 25.9 25.275 25.6 25.0125C25.3 24.75 24.85 24.7625 24.5875 25.0625C22.4 27.475 19.3125 28.875 16 28.875C12.925 28.875 10.05 27.675 7.9 25.5625C7.6125 25.2875 7.1625 25.2875 6.8875 25.575C6.6 25.85 6.6 26.3 6.8875 26.5875Z" fill="black"/>
<path d="M15.5625 9.2625C17.65 9.2625 19.35 7.5625 19.35 5.475C19.35 3.3875 17.65 1.6875 15.5625 1.6875C13.475 1.6875 11.775 3.3875 11.775 5.475C11.775 7.575 13.4625 9.2625 15.5625 9.2625ZM15.5625 7.825C14.2625 7.825 13.2125 6.775 13.2125 5.475C13.2125 4.175 14.2625 3.125 15.5625 3.125C16.8625 3.125 17.9125 4.175 17.9125 5.475C17.9125 6.775 16.8625 7.825 15.5625 7.825Z" fill="black"/>
<path d="M5.0375 27.6875C7.125 27.6875 8.825 25.9875 8.825 23.9C8.825 21.8125 7.125 20.1125 5.0375 20.1125C2.95 20.1125 1.25 21.8125 1.25 23.9C1.25 25.9875 2.95 27.6875 5.0375 27.6875ZM5.0375 26.2375C3.7375 26.2375 2.6875 25.1875 2.6875 23.8875C2.6875 22.5875 3.7375 21.5375 5.0375 21.5375C6.3375 21.5375 7.3875 22.5875 7.3875 23.8875C7.3875 25.1875 6.3375 26.2375 5.0375 26.2375Z" fill="black"/>
<path d="M26.9625 26.8C29.05 26.8 30.75 25.1 30.75 23.0125C30.75 20.925 29.05 19.225 26.9625 19.225C24.875 19.225 23.175 20.925 23.175 23.0125C23.175 25.1125 24.8625 26.8 26.9625 26.8ZM26.9625 25.3625C25.6625 25.3625 24.6125 24.3125 24.6125 23.0125C24.6125 21.7125 25.6625 20.6625 26.9625 20.6625C28.2625 20.6625 29.3125 21.7125 29.3125 23.0125C29.3125 24.3125 28.2625 25.3625 26.9625 25.3625Z" fill="black"/>
<path d="M21.6475 14.0525L15.2475 20.4525C14.7775 20.9225 14.0175 20.9225 13.5525 20.4525L10.3525 17.2525C9.8825 16.7825 9.8825 16.0225 10.3525 15.5575C10.8225 15.0925 11.5825 15.0875 12.0475 15.5575L14.3975 17.9075L19.9475 12.3525C20.4175 11.8825 21.1775 11.8825 21.6425 12.3525C22.1075 12.8225 22.1125 13.5825 21.6425 14.0475L21.6475 14.0525Z" fill="black"/>
</svg>
